<svg width="36px" height="36px" viewBox="0 0 66 66" version="1.1" xmlns="http://www.w3.org/2000/svg" xmlns:xlink="http://www.w3.org/1999/xlink" >
    <g id="Icon/HighestJump_team" stroke="none" stroke-width="1" >
        <g id="Group" transform="translate(5.000000, 7.000000)" >
            <path d="M21.3203639,12.9524884 C19.0717299,11.0146837 16.2373172,9.7809585 13.3052747,9.8761044 C15.7365709,8.563091 18.8481262,8.24910954 21.5754611,8.4457444 C24.1828994,8.58951955 26.6394325,9.72274708 28.4504865,11.6172743 C30.1193849,13.4666954 31.2380177,15.7515914 31.6785676,18.2108851 C32.1097417,20.6624288 32.1097417,23.1712069 31.6785676,25.6227506 C31.6284932,26.2177465 31.4255337,26.7893801 31.0896397,27.2814607 C30.6875394,27.7066394 30.1863068,28.0238879 29.6314918,28.2043759 C29.3975877,28.3185755 29.1418456,28.3802561 28.8819471,28.3851531 C28.4577939,28.3290578 28.092944,28.0552941 27.9182468,27.6620443 C27.7486524,27.2747684 27.642304,26.8624429 27.6033121,26.4410053 C27.0427282,22.4639067 25.8837684,18.4741221 23.4839656,15.2645338 C22.8477652,14.4174519 22.1223348,13.6422501 21.3203639,12.9524884 Z" id="Path"/>
            <path d="M16.5459532,11.2430338 C16.2971548,11.1574025 14.7161824,13.9800641 14.549267,14.3257609 C13.9193975,15.5943729 13.443846,16.9232439 12.9242037,18.2330858 C12.8171259,18.5058374 12.7163467,18.6644139 12.4266068,18.6929576 C11.6424193,18.7659028 10.8519331,18.8737348 10.0740443,18.9276509 C9.23631784,18.9815669 8.73242225,18.5629249 8.73242225,17.7192979 C8.73242225,15.3660227 9.43787607,13.2569553 11.1070302,11.5633583 C11.4651682,11.2326572 11.9062009,11.0067494 12.3825159,10.9100232 C13.7741254,10.6298028 15.2157159,10.7451077 16.5459532,11.2430338 L16.5459532,11.2430338 Z" id="Path"/>
            <path d="M10.2063168,41.5533455 C9.87062489,41.5533455 9.59849279,41.2792966 9.59849279,40.9412402 C9.59849279,40.6031838 9.87062489,40.3291349 10.2063168,40.3291349 C30.614524,40.3064092 47.1525288,23.6504996 47.173357,3.09854491 C47.173357,2.7604885 47.4454891,2.48643963 47.781181,2.48643963 C48.116873,2.48643963 48.3890051,2.7604885 48.3890051,3.09854491 C48.3664433,24.3258885 31.2851889,41.5288739 10.2063168,41.5533455 Z" id="Path"/>
            <path d="M55.7616274,41.3884259 L54.0294864,41.3884259 C53.9014583,41.4234641 53.7653554,41.3739451 53.6891295,41.2645924 C53.6129035,41.1552396 53.6129035,41.009507 53.6891295,40.9001542 C53.7653554,40.7908014 53.9014583,40.7412825 54.0294864,40.7763206 L55.7616274,40.7763206 C55.8987784,40.8138555 55.9939706,40.9392469 55.9939706,41.0823733 C55.9939706,41.2254997 55.8987784,41.350891 55.7616274,41.3884259 Z M51.5981901,41.3884259 L49.1668939,41.3884259 C49.029743,41.350891 48.9345508,41.2254997 48.9345508,41.0823733 C48.9345508,40.9392469 49.029743,40.8138555 49.1668939,40.7763206 L51.5981901,40.7763206 C51.7353411,40.8138555 51.8305333,40.9392469 51.8305333,41.0823733 C51.8305333,41.2254997 51.7353411,41.350891 51.5981901,41.3884259 Z M46.7355977,41.3884259 L44.3043015,41.3884259 C44.1671505,41.350891 44.0719583,41.2254997 44.0719583,41.0823733 C44.0719583,40.9392469 44.1671505,40.8138555 44.3043015,40.7763206 L46.7355977,40.7763206 C46.8636257,40.7412825 46.9997286,40.7908014 47.0759546,40.9001542 C47.1521805,41.009507 47.1521805,41.1552396 47.0759546,41.2645924 C46.9997286,41.3739451 46.8636257,41.4234641 46.7355977,41.3884259 Z M41.8730053,41.3884259 L39.4417091,41.3884259 C39.3045581,41.350891 39.2093659,41.2254997 39.2093659,41.0823733 C39.2093659,40.9392469 39.3045581,40.8138555 39.4417091,40.7763206 L41.8761546,40.7763206 C42.0041826,40.7412825 42.1402856,40.7908014 42.2165115,40.9001542 C42.2927374,41.009507 42.2927374,41.1552396 42.2165115,41.2645924 C42.1402856,41.3739451 42.0041826,41.4234641 41.8761546,41.3884259 L41.8730053,41.3884259 Z M37.0104128,41.3884259 L34.5791166,41.3884259 C34.4419657,41.350891 34.3467735,41.2254997 34.3467735,41.0823733 C34.3467735,40.9392469 34.4419657,40.8138555 34.5791166,40.7763206 L37.0104128,40.7763206 C37.1384409,40.7412825 37.2745438,40.7908014 37.3507697,40.9001542 C37.4269957,41.009507 37.4269957,41.1552396 37.3507697,41.2645924 C37.2745438,41.3739451 37.1384409,41.4234641 37.0104128,41.3884259 Z M32.1478204,41.3884259 L29.7165242,41.3884259 C29.5793732,41.350891 29.484181,41.2254997 29.484181,41.0823733 C29.484181,40.9392469 29.5793732,40.8138555 29.7165242,40.7763206 L32.1478204,40.7763206 C32.2758484,40.7412825 32.4119513,40.7908014 32.4881773,40.9001542 C32.5644032,41.009507 32.5644032,41.1552396 32.4881773,41.2645924 C32.4119513,41.3739451 32.2758484,41.4234641 32.1478204,41.3884259 Z M27.285228,41.3884259 L24.8696785,41.3884259 C24.7325275,41.350891 24.6373353,41.2254997 24.6373353,41.0823733 C24.6373353,40.9392469 24.7325275,40.8138555 24.8696785,40.7763206 L27.3009747,40.7763206 C27.4290027,40.7412825 27.5651056,40.7908014 27.6413316,40.9001542 C27.7175575,41.009507 27.7175575,41.1552396 27.6413316,41.2645924 C27.5651056,41.3739451 27.4290027,41.4234641 27.3009747,41.3884259 L27.285228,41.3884259 Z M22.4226355,41.3884259 L19.9913393,41.3884259 C19.8541884,41.350891 19.7589962,41.2254997 19.7589962,41.0823733 C19.7589962,40.9392469 19.8541884,40.8138555 19.9913393,40.7763206 L22.4226355,40.7763206 C22.5506636,40.7412825 22.6867665,40.7908014 22.7629924,40.9001542 C22.8392184,41.009507 22.8392184,41.1552396 22.7629924,41.2645924 C22.6867665,41.3739451 22.5506636,41.4234641 22.4226355,41.3884259 L22.4226355,41.3884259 Z M17.5600431,41.3884259 L15.1287469,41.3884259 C14.9915959,41.350891 14.8964037,41.2254997 14.8964037,41.0823733 C14.8964037,40.9392469 14.9915959,40.8138555 15.1287469,40.7763206 L17.5600431,40.7763206 C17.6880711,40.7412825 17.824174,40.7908014 17.9004,40.9001542 C17.9766259,41.009507 17.9766259,41.1552396 17.9004,41.2645924 C17.824174,41.3739451 17.6880711,41.4234641 17.5600431,41.3884259 L17.5600431,41.3884259 Z M12.7006,41.3884259 L10.2693038,41.3884259 C10.1412758,41.4234641 10.0051729,41.3739451 9.92894691,41.2645924 C9.85272097,41.1552396 9.85272097,41.009507 9.92894691,40.9001542 C10.0051729,40.7908014 10.1412758,40.7412825 10.2693038,40.7763206 L12.7006,40.7763206 C12.837751,40.8138555 12.9329432,40.9392469 12.9329432,41.0823733 C12.9329432,41.2254997 12.837751,41.350891 12.7006,41.3884259 L12.7006,41.3884259 Z" id="Shape"/>
            <path d="M55.150654,33.8179839 L52.7193578,33.8179839 C52.5913298,33.8530221 52.4552269,33.8035032 52.3790009,33.6941504 C52.302775,33.5847976 52.302775,33.439065 52.3790009,33.3297122 C52.4552269,33.2203594 52.5913298,33.1708405 52.7193578,33.2058787 L55.150654,33.2058787 C55.287805,33.2434135 55.3829972,33.3688049 55.3829972,33.5119313 C55.3829972,33.6550577 55.287805,33.7804491 55.150654,33.8179839 Z M50.2880616,33.8179839 L47.8599147,33.8179839 C47.7318867,33.8530221 47.5957838,33.8035032 47.5195578,33.6941504 C47.4433319,33.5847976 47.4433319,33.439065 47.5195578,33.3297122 C47.5957838,33.2203594 47.7318867,33.1708405 47.8599147,33.2058787 L50.291211,33.2058787 C50.4283619,33.2434135 50.5235541,33.3688049 50.5235541,33.5119313 C50.5235541,33.6550577 50.4283619,33.7804491 50.291211,33.8179839 L50.2880616,33.8179839 Z M45.4254692,33.8179839 L42.994173,33.8179839 C42.8661449,33.8530221 42.730042,33.8035032 42.6538161,33.6941504 C42.5775901,33.5847976 42.5775901,33.439065 42.6538161,33.3297122 C42.730042,33.2203594 42.8661449,33.1708405 42.994173,33.2058787 L45.4254692,33.2058787 C45.5626201,33.2434135 45.6578123,33.3688049 45.6578123,33.5119313 C45.6578123,33.6550577 45.5626201,33.7804491 45.4254692,33.8179839 Z M40.5628767,33.8179839 L38.1315805,33.8179839 C38.0035525,33.8530221 37.8674496,33.8035032 37.7912236,33.6941504 C37.7149977,33.5847976 37.7149977,33.439065 37.7912236,33.3297122 C37.8674496,33.2203594 38.0035525,33.1708405 38.1315805,33.2058787 L40.5628767,33.2058787 C40.7000277,33.2434135 40.7952199,33.3688049 40.7952199,33.5119313 C40.7952199,33.6550577 40.7000277,33.7804491 40.5628767,33.8179839 Z M35.7002843,33.8179839 L33.2689881,33.8179839 C33.1409601,33.8530221 33.0048571,33.8035032 32.9286312,33.6941504 C32.8524053,33.5847976 32.8524053,33.439065 32.9286312,33.3297122 C33.0048571,33.2203594 33.1409601,33.1708405 33.2689881,33.2058787 L35.7002843,33.2058787 C35.8374353,33.2434135 35.9326274,33.3688049 35.9326274,33.5119313 C35.9326274,33.6550577 35.8374353,33.7804491 35.7002843,33.8179839 Z" id="Shape"/>
            <path d="M55.7616274,26.253885 L55.131758,26.253885 C55.0045424,26.2859928 54.8708848,26.2353465 54.7962426,26.1267496 C54.7216005,26.0181527 54.7216005,25.8743405 54.7962426,25.7657436 C54.8708848,25.6571468 55.0045424,25.6065004 55.131758,25.6386082 L55.7616274,25.6386082 C55.9017386,25.6739707 56,25.8007848 56,25.9462466 C56,26.0917085 55.9017386,26.2185225 55.7616274,26.253885 Z M52.7130591,26.253885 L50.2817629,26.253885 C50.1545474,26.2859928 50.0208897,26.2353465 49.9462476,26.1267496 C49.8716055,26.0181527 49.8716055,25.8743405 49.9462476,25.7657436 C50.0208897,25.6571468 50.1545474,25.6065004 50.2817629,25.6386082 L52.7130591,25.6386082 C52.8531703,25.6739707 52.9514317,25.8007848 52.9514317,25.9462466 C52.9514317,26.0917085 52.8531703,26.2185225 52.7130591,26.253885 Z M47.8504667,26.253885 L45.4191705,26.253885 C45.2919549,26.2859928 45.1582973,26.2353465 45.0836551,26.1267496 C45.009013,26.0181527 45.009013,25.8743405 45.0836551,25.7657436 C45.1582973,25.6571468 45.2919549,25.6065004 45.4191705,25.6386082 L47.8599147,25.6386082 C48.0000259,25.6739707 48.0982873,25.8007848 48.0982873,25.9462466 C48.0982873,26.0917085 48.0000259,26.2185225 47.8599147,26.253885 L47.8504667,26.253885 Z M42.9878743,26.253885 L40.556578,26.253885 C40.4293625,26.2859928 40.2957048,26.2353465 40.2210627,26.1267496 C40.1464206,26.0181527 40.1464206,25.8743405 40.2210627,25.7657436 C40.2957048,25.6571468 40.4293625,25.6065004 40.556578,25.6386082 L42.9878743,25.6386082 C43.1279854,25.6739707 43.2262468,25.8007848 43.2262468,25.9462466 C43.2262468,26.0917085 43.1279854,26.2185225 42.9878743,26.253885 Z" id="Shape"/>
            <path d="M55.7616274,18.6834431 L54.4389015,18.6834431 C54.3017506,18.6459082 54.2065584,18.5205168 54.2065584,18.3773904 C54.2065584,18.234264 54.3017506,18.1088727 54.4389015,18.0713378 L55.7616274,18.0713378 C55.8987784,18.1088727 55.9939706,18.234264 55.9939706,18.3773904 C55.9939706,18.5205168 55.8987784,18.6459082 55.7616274,18.6834431 Z M52.0107547,18.6834431 L49.5794584,18.6834431 C49.4514304,18.7184812 49.3153275,18.6689623 49.2391015,18.5596095 C49.1628756,18.4502567 49.1628756,18.3045241 49.2391015,18.1951713 C49.3153275,18.0858185 49.4514304,18.0362996 49.5794584,18.0713378 L52.0107547,18.0713378 C52.1479056,18.1088727 52.2430978,18.234264 52.2430978,18.3773904 C52.2430978,18.5205168 52.1479056,18.6459082 52.0107547,18.6834431 Z M47.1481622,18.6834431 L44.7105673,18.6834431 C44.5825393,18.7184812 44.4464364,18.6689623 44.3702104,18.5596095 C44.2939845,18.4502567 44.2939845,18.3045241 44.3702104,18.1951713 C44.4464364,18.0858185 44.5825393,18.0362996 44.7105673,18.0713378 L47.1418635,18.0713378 C47.2790145,18.1088727 47.3742067,18.234264 47.3742067,18.3773904 C47.3742067,18.5205168 47.2790145,18.6459082 47.1418635,18.6834431 L47.1481622,18.6834431 Z" id="Shape"/>
            <path d="M54.3853626,11.1161726 L51.9540664,11.1161726 C51.8260384,11.1512108 51.6899355,11.1016918 51.6137095,10.9923391 C51.5374836,10.8829863 51.5374836,10.7372537 51.6137095,10.6279009 C51.6899355,10.5185481 51.8260384,10.4690292 51.9540664,10.5040673 L54.3853626,10.5040673 C54.5225136,10.5416022 54.6177058,10.6669936 54.6177058,10.81012 C54.6177058,10.9532464 54.5225136,11.0786377 54.3853626,11.1161726 L54.3853626,11.1161726 Z M49.5227702,11.1161726 L47.091474,11.1161726 C46.954323,11.0786377 46.8591308,10.9532464 46.8591308,10.81012 C46.8591308,10.6669936 46.954323,10.5416022 47.091474,10.5040673 L49.5227702,10.5040673 C49.6599211,10.5416022 49.7551133,10.6669936 49.7551133,10.81012 C49.7551133,10.9532464 49.6599211,11.0786377 49.5227702,11.1161726 L49.5227702,11.1161726 Z" id="Shape"/>
            <path d="M55.1947449,3.26346447 L52.7634487,3.26346447 C52.6262977,3.22592959 52.5311055,3.10053824 52.5311055,2.95741183 C52.5311055,2.81428542 52.6262977,2.68889408 52.7634487,2.65135919 L55.1947449,2.65135919 C55.3227729,2.61632103 55.4588758,2.66583996 55.5351018,2.77519274 C55.6113277,2.88454552 55.6113277,3.03027814 55.5351018,3.13963092 C55.4588758,3.2489837 55.3227729,3.29850263 55.1947449,3.26346447 Z M50.3321525,3.26346447 L47.9040056,3.26346447 C47.7759776,3.29850263 47.6398747,3.2489837 47.5636487,3.13963092 C47.4874228,3.03027814 47.4874228,2.88454552 47.5636487,2.77519274 C47.6398747,2.66583996 47.7759776,2.61632103 47.9040056,2.65135919 L50.3321525,2.65135919 C50.4601805,2.61632103 50.5962834,2.66583996 50.6725094,2.77519274 C50.7487353,2.88454552 50.7487353,3.03027814 50.6725094,3.13963092 C50.5962834,3.2489837 50.4601805,3.29850263 50.3321525,3.26346447 Z" id="Shape"/>
            <polygon id="Path" points="51.4911123 40.9412402 51.0187102 40.9412402 51.4911123 40.9317256"/>
            <path d="M45.1483283,44.686817 C45.1487608,44.8938407 45.0671404,45.0924794 44.9215736,45.2386633 C36.9572616,53.2530627 24.8145955,55.282173 14.7067343,50.2877389 C14.4580754,50.1642334 14.2937337,49.9165172 14.2756151,49.6379027 C14.2574964,49.3592882 14.3883536,49.0921035 14.6188939,48.9369946 C14.8494342,48.7818856 15.1446331,48.7624171 15.3932921,48.8859227 C24.9054668,53.5813013 36.3293545,51.6696443 43.8224513,44.1286278 C44.0448484,43.9063269 44.3779817,43.8401096 44.6675741,43.9606417 C44.9571666,44.0811738 45.1466712,44.3649196 45.1483283,44.680474 L45.1483283,44.686817 Z" id="Path"/>
            <path d="M10.9117707,6.60625703 C10.9117707,6.8413474 10.8064578,7.0638932 10.6251801,7.21201925 C4.88389957,11.9485779 1.55495635,19.0286768 1.55495635,26.5028501 C1.55495635,33.9770234 4.88389957,41.0571223 10.6251801,45.793681 C10.9264228,46.0755563 10.9577798,46.544851 10.6967511,46.8648268 C10.4357224,47.1848027 9.97248649,47.2449164 9.63943431,47.0020339 C3.5378736,41.9685058 0,34.4442954 0,26.5012644 C0,18.5582333 3.5378736,11.0340229 9.63943431,6.00049481 C9.87214575,5.81555025 10.1890111,5.77988383 10.4565275,5.90852265 C10.7240439,6.03716147 10.8957001,6.30773997 10.8991733,6.60625703 L10.9117707,6.60625703 Z" id="Path"/>
            <path d="M45.2113545,8.37914227 C45.2109187,8.69608765 45.0209149,8.98156371 44.7299492,9.10238038 C44.4389835,9.22319705 44.1043956,9.15554535 43.8822889,8.93098848 C36.4068765,1.35454815 24.9718647,-0.590000695 15.4405323,4.09440532 C15.1891713,4.23566274 14.8808977,4.22558855 14.6391597,4.06821695 C14.3974217,3.91084536 14.2617405,3.63190459 14.2864497,3.3430967 C14.3111588,3.0542888 14.4922188,2.80283015 14.7571239,2.68941755 C24.8881764,-2.29166965 37.0439633,-0.225932302 44.9908592,7.82729606 C45.1341186,7.97451709 45.2134209,8.17302845 45.2113545,8.37914227 L45.2113545,8.37914227 Z" id="Path"/>
        </g>
    </g>
</svg>