<svg width="36px" height="36px" viewBox="0 0 66 66" version="1.1" xmlns="http://www.w3.org/2000/svg" xmlns:xlink="http://www.w3.org/1999/xlink">
    <!-- Generator: Sketch 63.1 (92452) - https://sketch.com -->
    <title>Icon/TotalHeight_team</title>
    <desc>Created with Sketch.</desc>
    <defs>
        <path d="M23.2157697,38.8392242 L23.2157697,34.6284515 L23.1291282,34.6284515 L21.5955752,35.2551577 L21.5955752,35.9367368 L22.3955643,35.6277158 L22.3955643,38.8392242 L23.2157697,38.8392242 Z M26.8864776,38.8392242 L26.8864776,38.1605331 L25.4568943,38.1605331 L25.9969591,37.3894245 C26.297316,37.0332321 26.504774,36.7333565 26.6193332,36.4897979 C26.7338924,36.2462392 26.791172,36.00605 26.791172,35.7692301 C26.791172,35.3880079 26.6876837,35.0939084 26.480707,34.8869317 C26.2737303,34.679955 25.9825188,34.5764666 25.6070727,34.5764666 C25.3625514,34.5764666 25.1435411,34.6356716 24.950042,34.7540815 C24.7565428,34.8724914 24.6063644,35.0385542 24.4995066,35.2522696 C24.3926489,35.4659851 24.33922,35.7018423 24.33922,35.9598412 L24.33922,35.9598412 L25.1594254,35.9598412 C25.1594254,35.7364989 25.198414,35.5632161 25.2763913,35.4399927 C25.3543686,35.3167694 25.4597823,35.2551577 25.5926325,35.2551577 C25.7139304,35.2551577 25.8068293,35.3081052 25.871329,35.4140003 C25.9358287,35.5198954 25.9680786,35.6662231 25.9680786,35.8529835 C25.9680786,35.9916097 25.9339034,36.1364934 25.8655529,36.2876346 C25.7972025,36.4387757 25.6908261,36.6144652 25.5464237,36.8147032 L25.5464237,36.8147032 L24.4085331,38.2616148 L24.4085331,38.8392242 L26.8864776,38.8392242 Z M29.5550332,38.8392242 L29.5550332,37.9294894 L29.913151,37.9294894 L29.913151,37.2507983 L29.5550332,37.2507983 L29.5550332,34.6342276 L28.7348278,34.6342276 L27.3081325,37.4009767 L27.3456771,37.9294894 L28.7377158,37.9294894 L28.7377158,38.8392242 L29.5550332,38.8392242 Z M28.7377158,37.2507983 L28.1023455,37.2507983 L28.7203875,35.8760878 L28.7377158,35.8443193 L28.7377158,37.2507983 Z M30.955736,38.8709927 C31.0905116,38.8709927 31.2036268,38.8300787 31.2950816,38.7482507 C31.3865364,38.6664227 31.4322638,38.558121 31.4322638,38.4233454 C31.4322638,38.2904953 31.3870178,38.1821935 31.2965256,38.0984401 C31.2060335,38.0146868 31.0924369,37.9728101 30.955736,37.9728101 C30.8151844,37.9728101 30.7011066,38.0151681 30.6135025,38.0998841 C30.5258984,38.1846002 30.4820963,38.2924206 30.4820963,38.4233454 C30.4820963,38.5561956 30.526861,38.664016 30.6163905,38.7468067 C30.70592,38.8295974 30.8190352,38.8709927 30.955736,38.8709927 Z M33.2517335,38.8392242 L34.5802352,35.1049792 L34.5802352,34.6342276 L32.0358657,34.6342276 L32.0358657,35.3129186 L33.7224852,35.3129186 L32.3882074,38.8392242 L33.2517335,38.8392242 Z" id="path-1"/>
    </defs>
    <g id="Icon/TotalHeight_team" stroke="none" stroke-width="1" >
        <g id="Total_Height_TEAM" transform="translate(5.000000, 9.000000)" >
            <path d="M52.3946641,32.8602013 C52.2678683,32.8592914 52.1429481,32.8295805 52.0293924,32.7733255 C51.6212449,32.5714157 51.4534912,32.078578 51.6540674,31.6706717 C56.6169382,21.5776355 54.5969432,9.45529902 46.6273926,1.50473556 C46.3053586,1.1827149 46.3061087,0.661364244 46.6290682,0.340266277 C46.9520276,0.0191683103 47.4748982,0.0199163026 47.7969323,0.341936965 C56.2662806,8.79108046 58.4116502,21.6742226 53.1352608,32.3990915 C52.996383,32.6806774 52.7093703,32.859377 52.3946641,32.8602013 L52.3946641,32.8602013 Z" id="Path"/>
            <path d="M28.0018872,48 C19.6062802,48.0116847 11.6511362,44.2555102 6.34027029,37.7720229 C6.08363469,37.4186633 6.14715231,36.9271821 6.48524665,36.6502375 C6.82334098,36.3732928 7.31920932,36.4065618 7.61704567,36.7261725 C12.6211326,42.8186261 20.1023883,46.3513744 28.0002117,46.3513744 C35.8980351,46.3513744 43.3792907,42.8186261 48.3833777,36.7261725 C48.5638229,36.4787551 48.8667211,36.3511555 49.1704199,36.3946215 C49.4741187,36.4380875 49.7287912,36.6454876 49.8321537,36.9335241 C49.9355162,37.2215606 49.8706103,37.5429763 49.6635042,37.7686816 C44.353293,44.2534181 36.3980517,48.0108657 28.0018872,48 Z" id="Path"/>
            <path d="M3.58565254,32.8067393 C3.26898316,32.8067393 2.98016738,32.6262542 2.84170468,32.3422881 C-2.42143447,21.5935062 -0.238725623,8.69653416 8.27051338,0.265085333 C8.47690063,0.0424876256 8.78906485,-0.0493765795 9.08359624,0.0258099629 C9.37812762,0.100996505 9.60761372,0.331130575 9.68133038,0.625231846 C9.75504703,0.919333116 9.66112763,1.23005838 9.43670192,1.43456668 C1.43124887,9.36578388 -0.623409234,21.4980323 4.32624928,31.6105269 C4.45266892,31.8655597 4.43784521,32.1676397 4.28705923,32.4091484 C4.13627325,32.6506571 3.87096491,32.7972549 3.58565254,32.7967151 L3.58565254,32.8067393 Z" id="Path"/>
            <g id="124.7">
                <use xlink:href="#path-1"/>
                <use xlink:href="#path-1"/>
            </g>
            <polygon id="Path" points="16.343353 31.3064618 27.9817805 0.348619715 39.616857 31.3064618"/>
            <polygon id="Path" points="39.9117552 27.1297426 48.3833777 27.1297426 41.0913482 7.72971773 36.855537 19.0001766"/>
            <polygon id="Path" points="16.0920193 27.1297426 7.62039678 27.1297426 14.9124262 7.72971773 19.1482375 19.0001766"/>
        </g>
    </g>
</svg>