<svg width="36px" height="36px" viewBox="0 0 66 66" version="1.1" xmlns="http://www.w3.org/2000/svg" xmlns:xlink="http://www.w3.org/1999/xlink">
    <g id="Icon/TotalDistance_Team" stroke="none" stroke-width="1" >
        <g id="Total_Distance_TEAM" transform="translate(5.000000, 8.000000)" >
            <path d="M23.2502255,28.8818529 C22.6675212,25.6385276 19.8444999,23.27818 16.5481245,23.27818 C13.2517491,23.27818 10.4287278,25.6385276 9.84602349,28.8818529 C9.19591969,32.663861 12.5268639,36.5865639 14.6045152,39.3971085 L16.5548266,42.050209 L18.505138,39.3971085 C20.559332,36.583214 23.9036804,32.663861 23.2502255,28.8818529 Z M16.5481245,32.2317272 C15.12491,32.2317272 13.9711667,31.0783888 13.9711667,29.6556738 C13.9711667,28.2329588 15.12491,27.0796204 16.5481245,27.0796204 C17.971339,27.0796204 19.1250823,28.2329588 19.1250823,29.6556738 C19.129555,30.3429459 18.8591089,31.0035087 18.3738982,31.4904365 C17.8886874,31.9773642 17.2289479,32.2502786 16.5414224,32.2484855 L16.5481245,32.2317272 Z" id="Shape"/>
            <path d="M42.4651491,10.2900501 C42.3024472,9.34308774 41.48103,8.6509677 40.5198643,8.6509677 C39.5586986,8.6509677 38.7372813,9.34308774 38.5745795,10.2900501 C38.3835696,11.3854591 39.3520232,12.5210665 39.9518612,13.3384358 L40.5181888,14.1089069 L41.0845163,13.3384358 C41.6843543,12.5210665 42.6528079,11.3854591 42.4651491,10.2900501 Z M40.5181888,11.2648636 C40.2159405,11.2648636 39.9434535,11.0828575 39.8277881,10.8037145 C39.7121227,10.5245715 39.7760572,10.2032641 39.989779,9.98961728 C40.2035008,9.77597049 40.5249211,9.71205846 40.8041621,9.82768327 C41.0834031,9.94330808 41.265473,10.2156994 41.265473,10.5178416 C41.265473,10.9304104 40.9309025,11.2648636 40.5181888,11.2648636 L40.5181888,11.2648636 Z" id="Shape"/>
            <path d="M17.446206,44.8607536 C18.5855632,44.4520689 19.7919414,43.9864364 20.9346496,43.5208038 C22.0773578,43.0551713 23.2602787,42.5660896 24.41304,42.0636085 C26.7118607,41.0586462 28.9805219,39.9900362 31.17546,38.8175802 C33.3424663,37.7012206 35.3981313,36.3809867 37.3145845,34.8747781 C38.1676913,34.216391 38.8962634,33.4109321 39.4659589,32.4963673 C39.6512844,32.1936476 39.7508925,31.8462994 39.7541492,31.491405 C39.7188361,31.1430916 39.5622816,30.8182364 39.3118106,30.5735394 C38.9566181,30.2066415 38.5475612,29.896003 38.0987303,29.652324 C37.5911816,29.3687453 37.0636755,29.1224383 36.5203855,28.9153516 C35.9607601,28.7009596 35.3810283,28.5100168 34.7912434,28.3358233 C34.2014586,28.1616299 33.5379506,27.9673372 32.9146552,27.7562951 C31.6383428,27.3478711 30.4040099,26.818416 29.2284996,26.1751544 C28.5947455,25.8263919 28.0183452,25.3823805 27.5194639,24.8586537 C27.2376591,24.5571182 27.0158889,24.2046841 26.866009,23.8201927 C26.709711,23.3995273 26.6737387,22.9436516 26.7621264,22.5036921 C26.8494446,22.1012884 27.0194758,21.721419 27.261433,21.3881839 C27.4768057,21.0928565 27.7240377,20.8221202 27.9986641,20.5808642 C28.5062575,20.1337528 29.0574774,19.7387196 29.6440299,19.4017084 C30.7747522,18.752258 31.9545708,18.1922369 33.1726861,17.7267712 C35.5772193,16.8103843 38.0400992,16.0549932 40.5449972,15.465606 C38.1219847,16.2632436 35.7543377,17.2200416 33.4575253,18.3297486 C32.323965,18.8732826 31.2348739,19.5050026 30.2003043,20.2190778 C29.7035356,20.5620456 29.2431629,20.9549088 28.8263735,21.3915338 C28.4391152,21.7464951 28.1730524,22.213992 28.0656851,22.7281336 C27.9416962,23.4885551 28.9436603,24.2288774 29.9992412,24.7112593 C31.1165519,25.2001447 32.27791,25.5815197 33.4675785,25.8502166 C34.0741186,25.997611 34.6806588,26.1282561 35.3006031,26.2488516 C35.9205475,26.3694471 36.6008107,26.5335909 37.2576166,26.7245338 C37.9294734,26.9145992 38.5859306,27.155365 39.2213322,27.4447568 C39.926181,27.7557666 40.579354,28.1726113 41.1582394,28.6808604 C41.4873168,28.9809652 41.7737031,29.3247336 42.0094062,29.7025721 C42.2662747,30.119377 42.4424721,30.5807384 42.5288191,31.0626211 C42.6731441,31.9778736 42.546163,32.9153411 42.1635546,33.7592699 C41.8494447,34.4657144 41.447501,35.1297579 40.9672295,35.7356958 C40.5278493,36.2946207 40.0532717,36.8249764 39.5463841,37.3235362 C37.5943795,39.1625631 35.4688321,40.8083305 33.1994945,42.2378019 C30.9945032,43.674898 28.7358952,44.9846989 26.4471277,46.2308522 C25.3010684,46.8427626 24.142722,47.4435067 22.9720883,48.0330846 C21.8025717,48.6226625 20.6565124,49.1887912 19.4300279,49.75492 C18.103977,50.368223 16.5316454,49.7908039 15.918127,48.4652184 C15.3046087,47.1396328 15.8822305,45.5678531 17.2082814,44.95455 C17.2786535,44.9210513 17.3456745,44.8942523 17.4160466,44.8674533 L17.446206,44.8607536 Z" id="Path"/>
            <path d="M8.78374048,48.0230368 C8.56499855,48.0234968 8.35511613,47.9366794 8.20065769,47.781844 C-0.267387034,39.3104241 -2.41135257,26.3946037 2.86578528,15.6431494 C2.98621623,15.364955 3.24970725,15.1753132 3.55182866,15.1493851 C3.85395006,15.1234569 4.14592027,15.2654288 4.31202239,15.5190328 C4.47812452,15.7726368 4.49153913,16.0969252 4.34694961,16.3633724 C-0.616332586,26.4808995 1.40374668,38.6334698 9.37352537,46.6026882 C9.60883097,46.8396794 9.67857799,47.1948295 9.55036684,47.5031607 C9.42215569,47.8114918 9.12111666,48.0125688 8.78709153,48.0129853 L8.78374048,48.0230368 Z" id="Path"/>
            <path d="M49.0198039,11.6032206 C48.7727057,11.6049229 48.5383042,11.4939295 48.3831043,11.3017122 C43.3784385,5.19486983 35.8975793,1.65396437 28.0003396,1.65396437 C20.1030999,1.65396437 12.6222407,5.19486983 7.6175749,11.3017122 C7.32446762,11.6421531 6.81318581,11.6866551 6.46562996,11.4019776 C6.1180741,11.1173001 6.0611929,10.6074248 6.33747361,10.2532015 C11.6559184,3.76313898 19.6060275,-1.77573338e-15 27.9986641,-1.77573338e-15 C36.3913007,-1.77573338e-15 44.3414097,3.76313898 49.6598545,10.2532015 C49.9486176,10.6059085 49.8976752,11.1256387 49.5459188,11.4156079 C49.3971788,11.5364629 49.2114794,11.6026764 49.0198039,11.6032206 Z" id="Path"/>
            <path d="M47.1465667,48.0900482 C46.811681,48.0896125 46.5100459,47.8875106 46.3823905,47.5780184 C46.2547352,47.2685262 46.3262162,46.9126342 46.5634839,46.6763855 C54.5687793,38.7249945 56.623397,26.5618867 51.6738359,16.4236701 C51.4899271,16.0168882 51.6619617,15.5376075 52.0626296,15.3405083 C52.4632975,15.143409 52.9481358,15.2995566 53.1583513,15.6933975 C58.4213868,26.4695198 56.2387209,39.3992964 47.7296494,47.8521914 C47.5746414,48.0057988 47.3648268,48.0913828 47.1465667,48.0900482 L47.1465667,48.0900482 Z" id="Path"/>
        </g>
    </g>
</svg>